<svg width="96" height="48" xmlns="http://www.w3.org/2000/svg" viewbox="0 0 96 50"><g fill="#000" fill-rule="evenodd"><path d="M48 44.308c-26.475 0-44.26-10.5-44.26-20.308C3.74 14.193 21.525 3.692 48 3.692c26.475 0 44.26 10.5 44.26 20.308 0 9.807-17.785 20.308-44.26 20.308M48 0C21.49 0 0 10.745 0 24s21.49 24 48 24 48-10.745 48-24S74.51 0 48 0"/><path d="M41.019 19.692h5.993V32h3.995V19.692H57V16l-16 .025zM71.006 16.025v9.544L63.017 16 59 16.025v15.98L63.017 32v-9.846L71.006 32l3.994.005v-15.98zM30 22.77L24.857 16H21l.014 16.005L24.857 32v-9.846l3.857 4.923h2.572l3.857-4.923V32l3.843.005L39 16h-3.857z"/></g></svg>